<svg width="21" height="21" viewBox="0 0 21 21" fill="none" xmlns="http://www.w3.org/2000/svg">
<g clip-path="url(#clip0_244_168)">
<path d="M16.5512 6.97363C17.1725 5.86244 17.1264 4.44986 16.3876 3.40961C16.336 3.33494 16.2701 3.27122 16.1938 3.22212C16.1174 3.17302 16.0321 3.13952 15.9428 3.12354C15.8534 3.10756 15.7618 3.10942 15.6732 3.12901C15.5845 3.1486 15.5006 3.18554 15.4264 3.23769C15.1145 3.45709 15.0372 3.89057 15.2557 4.20499C15.6729 4.80603 15.6937 5.58572 15.3743 6.22498C14.8748 5.98636 14.3218 5.8416 13.7428 5.8416C12.6939 5.8416 11.7471 6.24201 11.0143 6.88156L13.2796 7.87983V10.5H15.9015L16.8722 12.7649C17.5124 12.0316 17.9119 11.0848 17.9119 10.0107C17.9119 8.82078 17.3821 7.73797 16.5512 6.97363ZM12.3531 11.4265V8.49072L10.8201 7.8338C9.34785 10.0744 8.54587 14.6691 4.7097 14.6691C3.81595 14.6691 3.08838 15.3958 3.08838 16.2904C3.08838 17.1851 3.81595 17.9118 4.7097 17.9118C9.92979 17.9118 13.9773 15.3562 15.9808 13.0333L15.2917 11.4265H12.3531Z" fill="#006341"/>
</g>
<circle cx="10.5" cy="10.5" r="9.5" stroke="#006341" stroke-width="2"/>
<defs>
<clipPath id="clip0_244_168">
<rect width="14.8235" height="14.8235" fill="white" transform="translate(3.08838 3.08813)"/>
</clipPath>
</defs>
</svg>
