<svg width="21" height="21" viewBox="0 0 21 21" fill="none" xmlns="http://www.w3.org/2000/svg">
<path d="M5.3778 4.32349C4.79659 4.32349 4.32471 4.79475 4.32471 5.37657V8.02937C4.32489 8.90544 4.63534 9.75314 5.20099 10.4221C5.76664 11.0911 6.55094 11.5382 7.4148 11.684C7.42302 10.7025 7.72483 9.74585 8.28135 8.93731L6.92994 7.58466C6.84812 7.49685 6.80357 7.3807 6.80569 7.26069C6.8078 7.14068 6.85642 7.02618 6.94129 6.94131C7.02617 6.85644 7.14067 6.80782 7.26068 6.8057C7.38069 6.80358 7.49683 6.84813 7.58465 6.92996L8.878 8.22269C9.60447 7.50149 10.5375 7.02441 11.5475 6.85769C11.3012 6.11973 10.8291 5.47791 10.198 5.0231C9.56679 4.56829 8.80855 4.32354 8.03059 4.32349H5.3778ZM8.98918 14.4449L7.54759 15.8852C7.50333 15.9279 7.46801 15.979 7.44371 16.0355C7.4194 16.092 7.4066 16.1528 7.40603 16.2143C7.40547 16.2758 7.41716 16.3368 7.44043 16.3938C7.46369 16.4507 7.49806 16.5025 7.54154 16.546C7.58501 16.5895 7.63672 16.6239 7.69364 16.6472C7.75055 16.6705 7.81155 16.6823 7.87306 16.6818C7.93456 16.6813 7.99536 16.6685 8.05188 16.6443C8.10841 16.62 8.15954 16.5848 8.2023 16.5405L9.6445 15.0996C10.2796 15.6111 11.0465 15.9325 11.8565 16.0267C12.6665 16.1209 13.4867 15.9841 14.2223 15.6321C14.9578 15.28 15.5788 14.7271 16.0135 14.0371C16.4482 13.3471 16.6789 12.5483 16.6789 11.7328V8.49137C16.6789 8.2047 16.565 7.92977 16.3623 7.72707C16.1596 7.52436 15.8847 7.41049 15.598 7.41049H12.3554C11.5399 7.41061 10.7412 7.64136 10.0513 8.0761C9.3614 8.51084 8.80855 9.13184 8.45657 9.86739C8.10458 10.6029 7.96781 11.4231 8.06206 12.233C8.1563 13.043 8.47771 13.8098 8.98918 14.4449ZM12.8347 11.9113L10.3054 14.4405C10.0582 14.2531 9.83776 14.0328 9.65006 13.7858L12.1793 11.256C12.2662 11.1691 12.3841 11.1202 12.507 11.1202C12.6299 11.1202 12.7477 11.1691 12.8347 11.256C12.9216 11.3429 12.9704 11.4607 12.9704 11.5836C12.9704 11.7065 12.9216 11.8244 12.8347 11.9113Z" fill="#006341"/>
<circle cx="10.5" cy="10.5" r="9.5" stroke="#006341" stroke-width="2"/>
</svg>
