<svg width="21" height="21" viewBox="0 0 21 21" fill="none" xmlns="http://www.w3.org/2000/svg">
<g clip-path="url(#clip0_244_184)">
<path d="M14.8546 15.6669C15.0051 13.1663 12.0621 11.3899 11.1033 10.7386C11.146 10.7035 11.1861 10.6642 11.2193 10.6168C11.2491 10.5741 11.271 10.5286 11.2887 10.4819C12.2157 11.1768 14.9677 13.2828 17.2118 12.296C19.6142 11.2392 18.0787 9.326 16.7807 9.33822C18.0734 8.85259 18.6838 6.64406 16.0848 6.42368C13.6088 6.21327 11.9132 8.95499 11.2489 9.94656C11.2001 9.85563 11.1309 9.77726 11.0467 9.71759C10.9675 9.66266 10.8772 9.62569 10.7822 9.60926C11.5037 8.65147 13.4415 6.05112 12.4096 3.85326C11.2788 1.44572 9.38697 2.9162 9.43337 4.20252C9.56229 4.67584 9.67129 5.15219 9.77776 5.62931C9.88593 6.10565 9.9799 6.58449 10.0744 7.06373C10.1644 7.54313 10.2536 8.02264 10.3294 8.50488L10.4425 9.22767C10.4736 9.46983 10.5106 9.71076 10.5361 9.95357C10.4696 9.71719 10.4153 9.47882 10.3546 9.24224L10.1915 8.52715C10.0834 8.05063 9.98946 7.57178 9.89543 7.09262C9.80603 6.61329 9.716 6.13325 9.64061 5.65128C9.56314 5.16985 9.48839 4.68776 9.43369 4.20246C8.90895 2.90873 6.66252 2.24583 6.50815 4.81468C6.35811 7.31505 9.3 9.09174 10.2595 9.74294C10.2168 9.77811 10.1767 9.81732 10.1435 9.86478C10.1136 9.90749 10.0918 9.95295 10.0741 9.99966C9.14731 9.30491 6.39532 7.19835 4.15096 8.18556C1.74859 9.24234 3.28434 11.1552 4.58236 11.143C3.28969 11.6286 2.67916 13.8373 5.27802 14.0579C7.75394 14.268 9.44968 11.5264 10.1141 10.5346C10.162 10.6226 10.228 10.7024 10.3159 10.7638C10.3983 10.8214 10.4888 10.8556 10.5808 10.8724C9.85949 11.8295 7.92116 14.4298 8.95346 16.6283C10.0842 19.036 11.976 17.5655 11.9297 16.279C11.8007 15.8059 11.6917 15.3295 11.5853 14.8522C11.4772 14.3759 11.3833 13.8968 11.2887 13.4178C11.1989 12.9382 11.1095 12.4589 11.0337 11.9766L10.9208 11.2536C10.8901 11.0118 10.8527 10.7706 10.827 10.5279C10.8931 10.7641 10.9481 11.0023 11.0087 11.2391L11.1716 11.9544C11.2797 12.4309 11.3737 12.9097 11.4679 13.3885C11.5571 13.8682 11.6472 14.3481 11.7223 14.8298C11.7998 15.3119 11.8745 15.7933 11.9296 16.2789C12.4538 17.5728 14.7008 18.2361 14.8546 15.6669ZM9.64761 10.3639L8.93021 10.5065C8.45142 10.6008 7.97042 10.6817 7.48918 10.7621C7.00675 10.8377 6.52463 10.9142 6.04013 10.9762C5.55546 11.0401 5.07079 11.1012 4.58185 11.1429C5.0566 11.0277 5.5349 10.9325 6.01359 10.8395C6.49213 10.7448 6.97338 10.6644 7.45489 10.5836C7.93682 10.507 8.41892 10.4314 8.90355 10.3692L9.63091 10.2763C9.87465 10.2522 10.1169 10.2214 10.3616 10.2029C10.1249 10.2621 9.88609 10.3102 9.64761 10.3639ZM11.7151 10.1173L12.4329 9.97501C12.9117 9.88071 13.3927 9.79983 13.8739 9.7194C14.3564 9.64376 14.8383 9.56753 15.3228 9.50548C15.8075 9.44158 16.2923 9.38032 16.7811 9.33881C16.3062 9.45388 15.8279 9.5494 15.349 9.6419C14.8708 9.73691 14.3891 9.81726 13.9082 9.89795C13.426 9.97405 12.9441 10.0503 12.4593 10.1127L11.732 10.2048C11.4885 10.2293 11.2457 10.26 11.0013 10.279C11.2382 10.2191 11.4774 10.1715 11.7151 10.1173Z" fill="#006341"/>
<path d="M10.1068 11.0626L6.40696 15.3448C6.38176 15.3742 6.35954 15.406 6.34061 15.4398C6.18637 15.7174 6.28848 16.0694 6.56895 16.2265C6.84956 16.3833 7.2019 16.286 7.35632 16.0085L10.1068 11.0626Z" fill="#006341"/>
</g>
<circle cx="10.5" cy="10.5" r="9.5" stroke="#006341" stroke-width="2"/>
<defs>
<clipPath id="clip0_244_184">
<rect width="14.8235" height="14.8235" fill="white" transform="translate(8.67188 0.178955) rotate(34.9546)"/>
</clipPath>
</defs>
</svg>
